<svg width="39" height="39" viewBox="0 0 39 39" fill="none" xmlns="http://www.w3.org/2000/svg">
<rect width="39" height="39" rx="10" fill="#F7F5FA"/>
<path d="M5.00358 19.6182C5.00358 17.4738 5.00358 15.3296 5.00358 13.1855C5.00431 12.9949 4.96764 13.0002 5.19613 13.0002C6.26453 13.0002 7.33292 13.0002 8.40132 13.0002C8.56959 12.999 8.56959 12.9975 8.56959 13.1622C8.56959 14.8493 8.56959 16.5364 8.56959 18.2235C8.56959 18.3041 8.56182 18.3854 8.58319 18.4648C8.62204 18.6091 8.7046 18.6469 8.83839 18.5789C8.97218 18.511 9.06445 18.3968 9.17275 18.3004C9.84721 17.6962 10.6598 17.267 11.539 17.0504C12.5545 16.7959 13.5602 16.8253 14.5451 17.1869C15.4722 17.5268 16.1812 18.1339 16.6641 18.999C17.1894 19.9407 17.3166 20.9586 17.2437 22.0143C17.1952 22.7321 17.0211 23.4168 16.6838 24.0557C16.1329 25.0998 15.2845 25.7756 14.1486 26.0866C13.4245 26.285 12.6883 26.2894 11.9474 26.193C11.2896 26.1075 10.6712 25.9125 10.0996 25.5728C9.59889 25.2751 9.1844 24.8839 8.83693 24.4192C8.72791 24.2735 8.6184 24.1278 8.47853 24.0093C8.25708 23.8231 8.0774 23.8376 7.89577 24.063C7.72289 24.2774 7.59079 24.52 7.44122 24.7501C6.97987 25.4587 6.37282 25.9657 5.53389 26.1629C5.4052 26.1932 5.27408 26.2138 5.14368 26.2357C5.04874 26.252 4.99654 26.2296 5.00018 26.1111C5.00916 25.8404 5.00358 25.5692 5.00358 25.2982C5.00374 23.4049 5.00374 21.5115 5.00358 19.6182ZM11.5237 23.395C12.0914 23.3933 12.5251 23.2932 12.9721 23.0604C13.8178 22.6197 14.1425 21.561 13.6916 20.7177C13.5065 20.3719 13.2079 20.1551 12.859 20.0101C11.9826 19.6459 11.0959 19.6546 10.2122 19.9858C9.90776 20.0999 9.63216 20.2716 9.43013 20.5382C9.16959 20.8823 9.09942 21.2788 9.12953 21.6965C9.17081 22.2729 9.43523 22.7131 9.94296 23.0055C10.4347 23.2877 10.9645 23.3969 11.5237 23.395Z" fill="#33CDCF"/>
<path d="M34.9968 21.6286V26.0702C34.9968 26.2501 34.9968 26.2518 34.8138 26.2268C33.926 26.1054 33.2163 25.6846 32.6986 24.951C32.531 24.7136 32.3781 24.4654 32.2173 24.2226C32.1503 24.1216 32.0823 24.022 31.9818 23.9482C31.8669 23.8639 31.7528 23.861 31.6316 23.9317C31.4262 24.0516 31.2939 24.2422 31.1562 24.4263C30.6286 25.1305 29.9569 25.6387 29.1248 25.9359C28.2378 26.2528 27.3236 26.2945 26.3975 26.2251C26.0021 26.1986 25.612 26.1195 25.2375 25.9898C24.6475 25.7805 24.2434 25.3728 23.9749 24.8172C23.685 24.2148 23.5703 23.5692 23.4939 22.9123C23.3994 22.1028 23.4006 21.2903 23.4011 20.4774C23.4011 19.369 23.3999 18.2606 23.3975 17.1522C23.3975 17.0308 23.4315 16.9941 23.5546 16.9946C24.6472 16.9988 25.7399 16.9963 26.8326 16.9961C26.9654 16.9961 26.9695 17.0019 26.9693 17.1828C26.9693 17.826 26.9688 18.4691 26.9678 19.1122C26.9678 19.7637 26.9618 20.415 26.9732 21.066C26.981 21.5069 27.0217 21.9462 27.1432 22.3738C27.2888 22.8883 27.5559 23.3081 28.1011 23.4545C29.3096 23.7794 30.2405 23.4742 30.9017 22.3298C31.255 21.7186 31.4201 21.0487 31.4286 20.3467C31.4408 19.3315 31.433 18.316 31.4328 17.3006C31.4328 17.0031 31.4311 17.0026 31.7317 17.0026C32.7593 17.0026 33.7872 17.0026 34.8155 17.0026C34.9993 17.0026 34.9997 17.0026 34.9997 17.1872V21.6286H34.9968Z" fill="#33CDCF"/>
<path d="M22.0189 19.6333C22.0189 21.7813 22.0189 23.9292 22.0189 26.0772C22.0189 26.2406 22.0189 26.2406 21.8555 26.2408C20.7713 26.2408 19.6868 26.2389 18.6017 26.2435C18.4803 26.2435 18.446 26.2146 18.4463 26.0898C18.4503 21.7819 18.4516 17.4738 18.4502 13.1654C18.4502 13.0056 18.4502 13.0054 18.6073 13.0054H21.861C22.0198 13.0054 22.0201 13.0054 22.0201 13.1647L22.0189 19.6333Z" fill="#33CDCF"/>
</svg>
