<svg width="35" height="43" viewBox="0 0 35 43" fill="none" xmlns="http://www.w3.org/2000/svg">
<path d="M4.73353 0.5C3.53121 0.5 2.37814 1.02059 1.52798 1.94724C0.677813 2.87389 0.200195 4.13069 0.200195 5.44118V35.0882C0.200195 36.3987 0.677813 37.6555 1.52798 38.5822C2.37814 39.5088 3.53121 40.0294 4.73353 40.0294H14.3827C13.8054 39.2673 13.3061 38.4389 12.8935 37.5588H4.73353C4.13237 37.5588 3.55584 37.2985 3.13075 36.8352C2.70567 36.3719 2.46686 35.7435 2.46686 35.0882H12.0027C11.3965 32.7608 11.3714 30.2992 11.93 27.9577C12.4886 25.6161 13.6106 23.4796 15.1802 21.7689C16.7498 20.0581 18.7099 18.8351 20.8582 18.2263C23.0064 17.6174 25.2649 17.6448 27.4002 18.3055V5.44118C27.4002 4.13069 26.9226 2.87389 26.0724 1.94724C25.2222 1.02059 24.0692 0.5 22.8669 0.5H4.73353ZM6.43353 6.67647H21.1669C21.6177 6.67647 22.0501 6.87169 22.3689 7.21918C22.6878 7.56668 22.8669 8.03798 22.8669 8.52941C22.8669 9.02084 22.6878 9.49215 22.3689 9.83964C22.0501 10.1871 21.6177 10.3824 21.1669 10.3824H6.43353C5.98266 10.3824 5.55026 10.1871 5.23145 9.83964C4.91263 9.49215 4.73353 9.02084 4.73353 8.52941C4.73353 8.03798 4.91263 7.56668 5.23145 7.21918C5.55026 6.87169 5.98266 6.67647 6.43353 6.67647ZM34.2002 31.3824C34.2002 34.3309 33.1256 37.1588 31.2127 39.2437C29.2998 41.3287 26.7054 42.5 24.0002 42.5C21.295 42.5 18.7006 41.3287 16.7877 39.2437C14.8748 37.1588 13.8002 34.3309 13.8002 31.3824C13.8002 28.4338 14.8748 25.606 16.7877 23.521C18.7006 21.436 21.295 20.2647 24.0002 20.2647C26.7054 20.2647 29.2998 21.436 31.2127 23.521C33.1256 25.606 34.2002 28.4338 34.2002 31.3824ZM22.9122 26.5252C22.7652 26.4152 22.5944 26.3489 22.4167 26.3328C22.239 26.3168 22.0606 26.3516 21.899 26.4338C21.7671 26.497 21.6478 26.5876 21.5477 26.7006C21.3365 26.9364 21.2185 27.2531 21.219 27.5826V35.1796C21.2176 35.3434 21.2459 35.5058 21.3023 35.6576C21.3587 35.8094 21.4421 35.9476 21.5477 36.0641C21.6511 36.1763 21.7715 36.2682 21.9035 36.3359C22.1335 36.4507 22.3944 36.4683 22.6357 36.3853C22.7402 36.3478 22.8393 36.2946 22.9303 36.2272L28.1346 32.3558C28.2929 32.2421 28.4205 32.0842 28.5041 31.8987C28.5902 31.7118 28.6345 31.5054 28.6333 31.2962C28.6321 31.0871 28.5855 30.8812 28.4973 30.6955C28.4086 30.5127 28.2783 30.3578 28.1187 30.2459L22.9122 26.5252Z" fill="black"/>
</svg>
