<svg width="41" height="42" viewBox="0 0 41 42" fill="none" xmlns="http://www.w3.org/2000/svg">
<path fill-rule="evenodd" clip-rule="evenodd" d="M20.5 0.75C9.322 0.75 0.25 9.822 0.25 21C0.25 32.178 9.322 41.25 20.5 41.25C31.678 41.25 40.75 32.178 40.75 21C40.75 9.822 31.678 0.75 20.5 0.75ZM29.0855 12.4138C26.7163 10.0446 23.618 8.84981 20.4995 8.84981V20.9998L11.9135 29.5858C16.652 34.3243 24.347 34.3243 29.1058 29.5858C33.8443 24.8473 33.8443 17.1523 29.0855 12.4138ZM4.3 20.9998C4.3 29.9503 11.5495 37.1998 20.5 37.1998C29.4505 37.1998 36.7 29.9503 36.7 20.9998C36.7 12.0493 29.4505 4.79981 20.5 4.79981C11.5495 4.79981 4.3 12.0493 4.3 20.9998Z" fill="black"/>
</svg>
