<svg width="41" height="45" viewBox="0 0 41 45" fill="none" xmlns="http://www.w3.org/2000/svg">
<path fill-rule="evenodd" clip-rule="evenodd" d="M34.675 4.27461H36.7C38.9275 4.27461 40.75 6.09711 40.75 8.32461V40.7246C40.75 42.9521 38.9275 44.7746 36.7 44.7746H4.3C2.0725 44.7746 0.25 42.9521 0.25 40.7246V8.32461C0.25 6.09711 2.0725 4.27461 4.3 4.27461H6.325V2.24961C6.325 1.13586 7.23625 0.224609 8.35 0.224609C9.46375 0.224609 10.375 1.13586 10.375 2.24961V4.27461H30.625V2.24961C30.625 1.13586 31.5363 0.224609 32.65 0.224609C33.7638 0.224609 34.675 1.13586 34.675 2.24961V4.27461ZM6.325 40.7248H34.675C35.7888 40.7248 36.7 39.8136 36.7 38.6998V14.3998H4.3V38.6998C4.3 39.8136 5.21125 40.7248 6.325 40.7248Z" fill="black"/>
</svg>
