<svg width="39" height="39" viewBox="0 0 39 39" fill="none" xmlns="http://www.w3.org/2000/svg">
<rect width="39" height="39" rx="10" fill="#F7F5FA"/>
<path d="M7.86236 21.8503C7.86236 21.4381 7.86683 20.3363 7.85667 20.2005C7.86553 18.561 6.67348 17.4045 5.9204 17.4947C5.39929 17.5399 4.96256 17.7524 4.72807 18.3637C4.51073 18.9333 4.70504 19.6911 5.42764 19.8689C6.2003 20.0598 6.65148 20.2187 6.978 20.4429C7.37808 20.7173 7.70469 21.2415 7.71337 21.8509" fill="#0060AF"/>
<path d="M8.17089 24.3423C6.80849 24.3423 5.40834 24.0068 4.01005 23.3431L3.97574 23.3262L3.95933 23.2913C3.33183 21.9667 3 20.518 3 19.1006C3 17.6853 3.31822 16.2986 3.94618 14.9758L3.96343 14.9407L3.99839 14.9231C5.29188 14.3104 6.68337 14 8.13546 14C9.48815 14 10.9328 14.3455 12.3125 15.001L12.3479 15.0168L12.3643 15.0526C13.0038 16.4015 13.341 17.8499 13.341 19.2438C13.341 20.6323 13.0172 22.0202 12.3769 23.3684L12.3601 23.4038L12.3245 23.4202C11.0507 24.0232 9.6143 24.3423 8.17089 24.3423ZM4.13946 23.1615C5.49785 23.8004 6.85259 24.1231 8.17089 24.1231C9.56871 24.1231 10.9589 23.8176 12.1963 23.2384C12.8111 21.932 13.1227 20.5875 13.1227 19.2438C13.1227 17.8946 12.7975 16.4912 12.1823 15.182C10.8433 14.5525 9.44489 14.2187 8.13546 14.2187C6.72961 14.2187 5.38214 14.5169 4.12771 15.1052C3.52558 16.3873 3.21911 17.7307 3.21911 19.1006C3.21911 20.473 3.53761 21.877 4.13946 23.1615Z" fill="#0060AF"/>
<path d="M7.53939 21.8509C7.5419 21.3226 7.24699 20.8553 6.86155 20.6042C6.51964 20.3823 6.06063 20.2365 5.32014 20.0487C5.09124 19.9902 4.8518 19.8601 4.77768 19.6943C4.5816 19.8919 4.54598 20.3361 4.58048 20.5957C4.62057 20.8961 4.97161 21.3912 5.50018 21.4106C5.82297 21.4235 6.23107 21.3411 6.42678 21.2995C6.76439 21.2266 7.29855 21.4381 7.38359 21.8503" fill="#0060AF"/>
<path d="M8.13583 14.9395C7.23963 14.9395 6.46547 15.5305 6.46827 16.5532C6.47107 17.4132 7.16271 17.8737 7.40951 18.2025C7.78246 18.6981 7.98432 19.2846 8.0053 20.1821C8.02161 20.8964 8.02078 21.6018 8.02441 21.8517H8.22226C8.21882 21.5902 8.20986 20.8414 8.22011 20.16C8.23354 19.2622 8.44267 18.6981 8.81581 18.2025C9.06476 17.8737 9.75584 17.4132 9.75733 16.5532C9.76069 15.5305 8.987 14.9395 8.09154 14.9395" fill="#0060AF"/>
<path d="M8.36291 21.8503C8.36291 21.4381 8.35824 20.3363 8.36822 20.2005C8.35946 18.561 9.55076 17.4045 10.3045 17.4947C10.8256 17.5399 11.2619 17.7524 11.497 18.3637C11.7142 18.9333 11.5187 19.6911 10.797 19.8689C10.0239 20.0598 9.57332 20.2187 9.24596 20.4429C8.84634 20.7173 8.54257 21.2415 8.53325 21.8509" fill="#0060AF"/>
<path d="M8.68557 21.8509C8.68277 21.3226 8.97759 20.8553 9.36192 20.6042C9.70522 20.3823 10.1648 20.2365 10.9046 20.0487C11.134 19.9902 11.3732 19.8601 11.446 19.6943C11.643 19.8919 11.6785 20.3361 11.644 20.5957C11.6031 20.8961 11.253 21.3912 10.7253 21.4106C10.4026 21.4235 9.99239 21.3411 9.79752 21.2995C9.46121 21.2266 8.92556 21.4381 8.84015 21.8503" fill="#0060AF"/>
<path d="M8.96234 23.5565L8.84766 22.7197L9.12448 22.6778C9.19189 22.6685 9.27394 22.6803 9.30676 22.7225C9.34303 22.7666 9.35413 22.8031 9.36112 22.8609C9.37156 22.9324 9.35086 23.0151 9.2703 23.0563V23.0588C9.36028 23.0588 9.41464 23.1234 9.43039 23.2325C9.43272 23.2555 9.43953 23.3112 9.43272 23.3576C9.41445 23.4681 9.34853 23.5036 9.2373 23.5192L8.96234 23.5565ZM9.14052 23.4067C9.17334 23.402 9.20662 23.4003 9.23264 23.3837C9.27245 23.3576 9.26881 23.302 9.26331 23.2607C9.24942 23.1699 9.22574 23.1354 9.12942 23.1496L9.06891 23.159L9.10723 23.4114L9.14052 23.4067ZM9.08252 23.02C9.11917 23.0141 9.16886 23.0097 9.18956 22.9749C9.20038 22.9517 9.21427 22.9332 9.20513 22.8816C9.19385 22.8203 9.17352 22.7824 9.09576 22.7971L9.02332 22.8088L9.05185 23.0232" fill="#0060AF"/>
<path d="M10.1613 23.0531C10.1635 23.0687 10.166 23.086 10.1669 23.1016C10.1893 23.2542 10.1613 23.3805 9.98978 23.4153C9.73617 23.4642 9.68759 23.3066 9.64293 23.086L9.61916 22.9667C9.58419 22.7556 9.56918 22.5958 9.81645 22.5465C9.95584 22.5211 10.048 22.5765 10.0863 22.7153C10.0922 22.736 10.0997 22.7565 10.1025 22.7773L9.95081 22.8086C9.93328 22.7565 9.91006 22.6634 9.84181 22.6712C9.7193 22.6859 9.75976 22.8384 9.77235 22.902L9.81794 23.1311C9.83165 23.2004 9.85887 23.3111 9.96489 23.2897C10.0509 23.2725 10.0135 23.1384 10.0058 23.0835" fill="#0060AF"/>
<path d="M10.4045 23.3066L10.3521 22.4406L10.5559 22.3784L10.9832 23.1316L10.8227 23.1796L10.7215 22.9882L10.5433 23.0417L10.5663 23.2593L10.4045 23.3066ZM10.5284 22.9019L10.6571 22.8646L10.4861 22.5142" fill="#0060AF"/>
<path d="M5.3704 22.6519C5.43417 22.4477 5.49133 22.2974 5.73468 22.3642C5.86493 22.4006 5.94568 22.458 5.94185 22.6093C5.94122 22.643 5.9301 22.6773 5.92283 22.7106L5.77132 22.6687C5.79118 22.5852 5.80377 22.5189 5.70083 22.4872C5.58186 22.4545 5.55286 22.5988 5.53645 22.6611L5.47482 22.8881C5.45524 22.9555 5.43175 23.0669 5.53645 23.0956C5.62298 23.119 5.67547 23.034 5.7068 22.91L5.60079 22.8819L5.63743 22.7506L5.88666 22.8308L5.76834 23.2683L5.65365 23.2372L5.67948 23.1447H5.67621C5.62344 23.2203 5.55902 23.2282 5.50261 23.2174C5.25338 23.15 5.27939 22.9871 5.33888 22.7695" fill="#0060AF"/>
<path d="M6.2982 23.0216L6.22315 23.3775L6.0542 23.341L6.23424 22.5098L6.52225 22.5748C6.69083 22.6112 6.74174 22.6863 6.71787 22.8408C6.70425 22.9294 6.66053 23.025 6.55377 23.0173L6.55265 23.0158C6.6429 23.0474 6.65055 23.0929 6.63479 23.1716C6.62799 23.2051 6.58109 23.4083 6.61344 23.4411L6.61456 23.466L6.43974 23.4204C6.43246 23.3641 6.45717 23.2628 6.46696 23.2068C6.47685 23.1572 6.4926 23.0872 6.44225 23.0609C6.40282 23.04 6.38818 23.041 6.34361 23.0307L6.2982 23.0216ZM6.32701 22.8928L6.44076 22.9235C6.50985 22.9334 6.54827 22.8976 6.56188 22.8142C6.57419 22.7376 6.55824 22.7077 6.49624 22.6929L6.37428 22.6682" fill="#0060AF"/>
<path d="M7.38202 22.6955L7.5491 22.7149L7.47712 23.2993C7.44216 23.4845 7.37055 23.5655 7.16673 23.5402C6.95937 23.514 6.91014 23.4195 6.92273 23.2328L6.99518 22.6489L7.16356 22.6682L7.0913 23.239C7.08366 23.301 7.0693 23.3929 7.1796 23.404C7.27741 23.4114 7.2996 23.3466 7.3106 23.2661" fill="#0060AF"/>
<path d="M7.73291 23.5719L7.78317 22.7363L8.10418 22.7502C8.25588 22.7577 8.2956 22.8816 8.29085 22.9998C8.28646 23.0717 8.26399 23.152 8.20134 23.1955C8.14996 23.2325 8.08395 23.2413 8.02269 23.2383L7.91808 23.2325L7.8972 23.5827L7.73291 23.5719ZM7.92284 23.1051L8.00787 23.1098C8.07696 23.1123 8.12274 23.085 8.12871 22.9836C8.13206 22.8862 8.09523 22.8697 8.00572 22.8657L7.93831 22.8634" fill="#0060AF"/>
<path d="M30.3743 15.7471L29.0984 18.0629C28.6168 17.6718 28.0288 17.384 27.2785 17.384C25.5029 17.384 24.7817 18.7075 24.7817 19.6398C24.7817 20.3318 25.2349 21.3529 26.8147 21.3529C27.4778 21.3529 28.4205 20.8915 28.6919 20.6817L27.43 23.3683C26.8285 23.4883 26.6309 23.5627 26.1218 23.5785C23.2941 23.6628 22.1515 21.9258 22.1523 20.1508C22.1542 17.8044 24.2404 14.9508 27.6988 14.9508C27.9107 14.9508 28.1699 15.0241 28.3916 15.1053L28.6155 14.8188" fill="#0060AF"/>
<path d="M35.639 14.8911L36.0003 23.3079H33.3115L33.3099 21.8644H31.4765L30.873 23.3079H27.957L31.0056 17.2976L30.3182 17.2931L31.6244 14.8911H35.639ZM33.2925 17.466L32.2559 19.9141H33.3237" fill="#0060AF"/>
<path d="M20.4551 14.8915C21.7866 14.899 22.539 15.6217 22.539 16.6658C22.539 17.6283 21.7455 18.4803 20.8744 18.9209C21.7712 19.2506 21.8488 20.0599 21.8488 20.6324C21.8488 22.0157 20.4608 23.3083 18.6565 23.3083H14.7217L16.2566 17.3817L15.6261 17.3781L16.9149 14.8915C16.9149 14.8915 19.3723 14.884 20.4551 14.8915ZM19.1487 18.304C19.4241 18.304 19.9105 18.2343 20.0321 17.7012C20.1653 17.1226 19.7089 17.107 19.49 17.107L18.7077 17.1036L18.4349 18.304L19.1487 18.304ZM18.0427 19.7913L17.6825 21.1746H18.6036C18.9661 21.1746 19.4599 20.9948 19.581 20.5446C19.7005 20.0932 19.3552 19.7913 18.9941 19.7913" fill="#0060AF"/>
</svg>
